REM DIRINDEX 1\2,1\3,1\4,1\5
REM DIRNAME cjc004,folder01,folder02,folder03,folder04
TITLE ""
FILE "1Q_t_2091-2100.mp3" MP3
  TRACK 01 AUDIO
    TITLE "3:cjc004_7181"
    INDEX 01 00:00:00
  TRACK 02 AUDIO
    TITLE "0:"
    INDEX 01 00:00:66
  TRACK 03 AUDIO
    TITLE "4:cjc004_7182"
    INDEX 01 00:01:15
  TRACK 04 AUDIO
    TITLE "0:"
    INDEX 01 00:02:30
  TRACK 05 AUDIO
    TITLE "5:cjc004_7183"
    INDEX 01 00:02:51
  TRACK 06 AUDIO
    TITLE "0:"
    INDEX 01 00:07:70
  TRACK 07 AUDIO
    TITLE "3:cjc004_7184"
    INDEX 01 00:08:50
  TRACK 08 AUDIO
    TITLE "0:"
    INDEX 01 00:10:00
  TRACK 09 AUDIO
    TITLE "4:cjc004_7185"
    INDEX 01 00:10:29
  TRACK 10 AUDIO
    TITLE "0:"
    INDEX 01 00:11:60
  TRACK 11 AUDIO
    TITLE "5:cjc004_7186"
    INDEX 01 00:12:14
  TRACK 12 AUDIO
    TITLE "0:"
    INDEX 01 00:16:18
  TRACK 13 AUDIO
    TITLE "3:cjc004_7187"
    INDEX 01 00:17:00
  TRACK 14 AUDIO
    TITLE "0:"
    INDEX 01 00:18:27
  TRACK 15 AUDIO
    TITLE "4:cjc004_7188"
    INDEX 01 00:18:54
  TRACK 16 AUDIO
    TITLE "0:"
    INDEX 01 00:20:24
  TRACK 17 AUDIO
    TITLE "5:cjc004_7189"
    INDEX 01 00:20:49
  TRACK 18 AUDIO
    TITLE "0:"
    INDEX 01 00:25:09
  TRACK 19 AUDIO
    TITLE "3:cjc004_7190"
    INDEX 01 00:25:60
  TRACK 20 AUDIO
    TITLE "0:"
    INDEX 01 00:26:69
  TRACK 21 AUDIO
    TITLE "4:cjc004_7191"
    INDEX 01 00:27:22
  TRACK 22 AUDIO
    TITLE "0:"
    INDEX 01 00:28:45
  TRACK 23 AUDIO
    TITLE "5:cjc004_7192"
    INDEX 01 00:28:66
  TRACK 24 AUDIO
    TITLE "0:"
    INDEX 01 00:33:19
  TRACK 25 AUDIO
    TITLE "3:cjc004_7193"
    INDEX 01 00:33:73
  TRACK 26 AUDIO
    TITLE "0:"
    INDEX 01 00:35:00
  TRACK 27 AUDIO
    TITLE "4:cjc004_7194"
    INDEX 01 00:35:25
  TRACK 28 AUDIO
    TITLE "0:"
    INDEX 01 00:36:54
  TRACK 29 AUDIO
    TITLE "5:cjc004_7195"
    INDEX 01 00:37:05
  TRACK 30 AUDIO
    TITLE "0:"
    INDEX 01 00:42:51
  TRACK 31 AUDIO
    TITLE "3:cjc004_7196"
    INDEX 01 00:43:25
  TRACK 32 AUDIO
    TITLE "0:"
    INDEX 01 00:44:46
  TRACK 33 AUDIO
    TITLE "4:cjc004_7197"
    INDEX 01 00:44:69
  TRACK 34 AUDIO
    TITLE "0:"
    INDEX 01 00:45:69
  TRACK 35 AUDIO
    TITLE "5:cjc004_7198"
    INDEX 01 00:46:15
  TRACK 36 AUDIO
    TITLE "0:"
    INDEX 01 00:50:37
  TRACK 37 AUDIO
    TITLE "3:cjc004_7199"
    INDEX 01 00:51:16
  TRACK 38 AUDIO
    TITLE "0:"
    INDEX 01 00:52:37
  TRACK 39 AUDIO
    TITLE "4:cjc004_7200"
    INDEX 01 00:52:65
  TRACK 40 AUDIO
    TITLE "0:"
    INDEX 01 00:54:54
  TRACK 41 AUDIO
    TITLE "5:cjc004_7201"
    INDEX 01 00:55:03
  TRACK 42 AUDIO
    TITLE "0:"
    INDEX 01 01:00:33
  TRACK 43 AUDIO
    TITLE "3:cjc004_7202"
    INDEX 01 01:01:17
  TRACK 44 AUDIO
    TITLE "0:"
    INDEX 01 01:02:34
  TRACK 45 AUDIO
    TITLE "4:cjc004_7203"
    INDEX 01 01:02:59
  TRACK 46 AUDIO
    TITLE "0:"
    INDEX 01 01:04:45
  TRACK 47 AUDIO
    TITLE "5:cjc004_7204"
    INDEX 01 01:04:68
  TRACK 48 AUDIO
    TITLE "0:"
    INDEX 01 01:09:52
  TRACK 49 AUDIO
    TITLE "3:cjc004_7205"
    INDEX 01 01:10:28
  TRACK 50 AUDIO
    TITLE "0:"
    INDEX 01 01:11:54
  TRACK 51 AUDIO
    TITLE "4:cjc004_7206"
    INDEX 01 01:12:07
  TRACK 52 AUDIO
    TITLE "0:"
    INDEX 01 01:13:45
  TRACK 53 AUDIO
    TITLE "5:cjc004_7207"
    INDEX 01 01:13:73
  TRACK 54 AUDIO
    TITLE "0:"
    INDEX 01 01:18:31
  TRACK 55 AUDIO
    TITLE "3:cjc004_7208"
    INDEX 01 01:19:11
  TRACK 56 AUDIO
    TITLE "0:"
    INDEX 01 01:20:28
  TRACK 57 AUDIO
    TITLE "4:cjc004_7209"
    INDEX 01 01:20:55
  TRACK 58 AUDIO
    TITLE "0:"
    INDEX 01 01:22:15
  TRACK 59 AUDIO
    TITLE "5:cjc004_7210"
    INDEX 01 01:22:39
  TRACK 60 AUDIO
    TITLE "0:"
    INDEX 01 01:27:40
